# xmcd
#
# Track frame offsets:
# 150
# 12664
# 24630
# 37364
# 48670
# 62172
# 76013
# 89831
# 103775
# 113448
# 124610
# 137420
# 150978
# 161615
# 173199
# 184975
# 197411
# 212062
# 225863
# 238144
# 251311
# 265065
# 277197
# 287154
#
# Disc length: 3984 seconds
#
#
# Revision: 0
# Processed by: cddbd v1.5.1PL0 Copyright (c) Steve Scherf et al.
# Submitted via: FreeRIP 2.941 
#
DISCID=500f8e18
DTITLE=Lightnin' Hopkins - The Chronological Lightnin' Hopkins 1949-1950
DYEAR=2003
DGENRE=Blues
TTITLE0=Fast Life Women
TTITLE1=European Blues
TTITLE2=Automobile
TTITLE3=Zologo (Organ Blues)
TTITLE4=Organ Boogie
TTITLE5=Automobile Blues
TTITLE6=Old Women Blues (Good Old Woman)
TTITLE7=Untrue (Grievance Blues)
TTITLE8=Henny Penny Blues
TTITLE9=Jazz Blues
TTITLE10=Jackstropper Blues (The Jackstropper)
TTITLE11=Grievance Blues (Nobody Cares For Me)
TTITLE12=Grosebeck Blues
TTITLE13=Penitentiary Blues
TTITLE14=Race Track Blues
TTITLE15=Good-Bye Blues
TTITLE16=Bluebird Blues
TTITLE17=Seems Funny Baby
TTITLE18=Coolin' Board Blues
TTITLE19=Goin' Back And Talk To Mama
TTITLE20=All I Got Is Gone
TTITLE21=Beggin' You To Stay (Someday Baby)
TTITLE22=Don't Keep My Baby Long
TTITLE23=Bad Luck And Trouble
EXTD=Record 5079 of the 'Blues and Rhythm Series\nClassics' on Classics Records
EXTT0=
EXTT1=
EXTT2=
EXTT3=
EXTT4=
EXTT5=
EXTT6=
EXTT7=
EXTT8=
EXTT9=
EXTT10=
EXTT11=
EXTT12=
EXTT13=
EXTT14=
EXTT15=
EXTT16=
EXTT17=
EXTT18=
EXTT19=
EXTT20=
EXTT21=
EXTT22=
EXTT23=
PLAYORDER=
